<svg width="100%" height="100%" viewBox="0 0 7 5" fill="none" xmlns="http://www.w3.org/2000/svg">
<path d="M3.66996 3.94462L6.69982 0.914706C6.76996 0.844628 6.80859 0.75108 6.80859 0.651331C6.80859 0.551583 6.76996 0.458035 6.69982 0.387957L6.47675 0.164824C6.33139 0.0196303 6.09513 0.0196303 5.95 0.164824L3.4057 2.70912L0.85858 0.162001C0.788446 0.0919228 0.694953 0.0532303 0.595261 0.0532303C0.495457 0.0532303 0.401964 0.0919228 0.331775 0.162001L0.108753 0.385134C0.0386195 0.455267 -1.7643e-05 0.54876 -1.7643e-05 0.648508C-1.7643e-05 0.748257 0.0386195 0.841805 0.108753 0.911883L3.14138 3.94462C3.21174 4.01487 3.30567 4.05345 3.40553 4.05323C3.50578 4.05345 3.59966 4.01487 3.66996 3.94462Z" fill="#B2BDCD"/>
</svg>
