<svg width="100%" height="100%" viewBox="0 0 7 4" fill="none" xmlns="http://www.w3.org/2000/svg">
<path d="M3.72318 0.108606L6.75305 3.13852C6.82318 3.2086 6.86182 3.30215 6.86182 3.4019C6.86182 3.50165 6.82318 3.5952 6.75305 3.66527L6.52997 3.88841C6.38461 4.0336 6.14836 4.0336 6.00322 3.88841L3.45892 1.34411L0.911803 3.89123C0.841669 3.96131 0.748176 4 0.648483 4C0.54868 4 0.455186 3.96131 0.384997 3.89123L0.161976 3.6681C0.0918422 3.59796 0.053205 3.50447 0.053205 3.40472C0.053205 3.30497 0.0918422 3.21143 0.161976 3.14135L3.19461 0.108606C3.26496 0.0383613 3.3589 -0.000220299 3.45876 9.53674e-07C3.559 -0.000220299 3.65288 0.0383613 3.72318 0.108606Z" fill="#B2BDCD"/>
</svg>
